HIERARCHY
ROOT Hips
{
	OFFSET -0.001795 -0.223333 0.028219
	CHANNELS 6 Xposition Yposition Zposition Zrotation Yrotation Xrotation 
	JOINT LeftUpLeg
	{
		OFFSET 0.069520 -0.091406 -0.006815
		CHANNELS 3 Zrotation Yrotation Xrotation
		JOINT LeftLeg
		{
			OFFSET 0.034277 -0.375199 -0.004496
			CHANNELS 3 Zrotation Yrotation Xrotation
			JOINT LeftFoot
			{
				OFFSET -0.013596 -0.397961 -0.043693
				CHANNELS 3 Zrotation Yrotation Xrotation
				JOINT LeftToe
				{
					OFFSET 0.026358 -0.055791 0.119288
					CHANNELS 3 Zrotation Yrotation Xrotation
					End Site
					{
						OFFSET 0.000000 0.000000 0.000000
					}
				}
			}
		}
	}
	JOINT RightUpLeg
	{
		OFFSET -0.067670 -0.090522 -0.004320
		CHANNELS 3 Zrotation Yrotation Xrotation
		JOINT RightLeg
		{
			OFFSET -0.038290 -0.382569 -0.008850
			CHANNELS 3 Zrotation Yrotation Xrotation
			JOINT RightFoot
			{
				OFFSET 0.015774 -0.398415 -0.042312
				CHANNELS 3 Zrotation Yrotation Xrotation
				JOINT RightToe
				{
					OFFSET -0.025372 -0.048144 0.123348
					CHANNELS 3 Zrotation Yrotation Xrotation
					End Site
					{
						OFFSET 0.000000 0.000000 0.000000
					}
				}
			}
		}
	}
	JOINT Spine
	{
		OFFSET -0.002533 0.108963 -0.026696
		CHANNELS 3 Zrotation Yrotation Xrotation
		JOINT Spine1
		{
			OFFSET 0.005487 0.135180 0.001092
			CHANNELS 3 Zrotation Yrotation Xrotation
			JOINT Spine2
			{
				OFFSET 0.001457 0.052922 0.025425
				CHANNELS 3 Zrotation Yrotation Xrotation
				JOINT Neck
				{
					OFFSET -0.002778 0.213870 -0.042857
					CHANNELS 3 Zrotation Yrotation Xrotation
					JOINT Head
					{
						OFFSET 0.005152 0.064970 0.051349
						CHANNELS 3 Zrotation Yrotation Xrotation
						End Site
						{
							OFFSET 0.000000 0.000000 0.000000
						}
					}
				}
				JOINT LeftShoulder
				{
					OFFSET 0.078845 0.121749 -0.034090
					CHANNELS 3 Zrotation Yrotation Xrotation
					JOINT LeftArm
					{
						OFFSET 0.090977 0.030469 -0.008868
						CHANNELS 3 Zrotation Yrotation Xrotation
						JOINT LeftForeArm
						{
							OFFSET 0.259612 -0.012772 -0.027456
							CHANNELS 3 Zrotation Yrotation Xrotation
							JOINT LeftHand
							{
								OFFSET 0.249234 0.008986 -0.001171
								CHANNELS 3 Zrotation Yrotation Xrotation
								End Site
								{
									OFFSET 0.000000 0.000000 0.000000
								}
							}
						}
					}
				}
				JOINT RightShoulder
				{
					OFFSET -0.081759 0.118833 -0.038615
					CHANNELS 3 Zrotation Yrotation Xrotation
					JOINT RightArm
					{
						OFFSET -0.096012 0.032551 -0.009143
						CHANNELS 3 Zrotation Yrotation Xrotation
						JOINT RightForeArm
						{
							OFFSET -0.253742 -0.013329 -0.021401
							CHANNELS 3 Zrotation Yrotation Xrotation
							JOINT RightHand
							{
								OFFSET -0.255298 0.007772 -0.005559
								CHANNELS 3 Zrotation Yrotation Xrotation
								End Site
								{
									OFFSET 0.000000 0.000000 0.000000
								}
							}
						}
					}
				}
			}
		}
	}
}
MOTION
Frames: 12
Frame Time: 0.050000
0.000000 0.951141 0.000000 -0.850747 0.080568 6.621314 4.289325 -0.356589 -4.329813 0.628411 0.125066 -4.862645 0.193387 4.296348 10.033198 0.000000 0.000000 0.000000 -1.974039 0.474186 -4.749690 -2.294585 -0.051052 -4.815268 0.241926 -4.184003 11.116713 0.000000 0.000000 0.000000 3.471099 0.199428 -4.338264 -1.347197 0.670885 -2.871460 -2.222085 3.245907 5.593225 5.161783 -2.632049 -9.124152 0.000000 0.000000 0.000000 -14.179298 -3.901695 -0.136437 -57.196982 -8.414855 -2.854531 -9.279809 -16.952754 1.903227 0.000000 0.000000 0.000000 12.991167 -1.633598 -1.341522 63.874849 5.646324 -2.954146 5.421169 18.087530 1.463518 0.000000 0.000000 0.000000 
0.000362 0.950236 0.000367 -1.000372 -0.345475 7.109576 4.207509 -0.340288 -3.976514 1.248810 0.118775 -5.606716 0.300689 4.343967 9.761799 0.000000 0.000000 0.000000 -1.978457 0.523229 -5.299106 -2.212136 -0.036470 -4.448079 0.653434 -3.490383 11.273645 0.000000 0.000000 0.000000 4.015437 0.221275 -4.638356 -1.616377 0.787098 -3.112874 -2.456627 4.125522 5.325969 5.496258 -2.815002 -9.089348 0.000000 0.000000 0.000000 -14.744811 -3.968761 -0.312552 -56.456152 -8.026935 -2.944222 -10.141680 -17.613920 2.083374 0.000000 0.000000 0.000000 12.493475 -2.330864 -1.547897 65.062964 4.965169 -3.246424 5.837596 18.573162 1.589294 0.000000 0.000000 0.000000 
0.000593 0.950473 0.000492 -0.672156 0.293080 6.843450 4.093651 -0.346879 -4.056805 1.071342 0.073356 -4.314079 -0.202746 3.152477 8.646070 0.000000 0.000000 0.000000 -2.042387 0.496943 -5.019711 -2.488229 -0.004650 -4.258408 0.153128 -4.451099 11.476340 0.000000 0.000000 0.000000 3.576991 0.192423 -4.282598 -0.961244 0.526282 -4.282466 -3.297605 4.010342 5.763413 5.717380 -3.088386 -8.291685 0.000000 0.000000 0.000000 -14.346123 -4.028128 -0.305486 -56.205492 -7.849151 -3.072325 -10.547808 -16.952214 2.052785 0.000000 0.000000 0.000000 13.801354 -1.227582 -0.995432 63.378696 4.146981 -3.751013 6.200803 18.420749 1.635733 0.000000 0.000000 0.000000 
0.000788 0.950567 0.000607 -0.691115 0.159274 7.000285 4.450260 -0.358784 -4.305672 0.807951 0.088283 -4.242554 -0.456390 2.843575 9.072731 0.000000 0.000000 0.000000 -2.026314 0.520139 -5.284764 -2.489743 -0.007722 -4.300095 0.106748 -4.681766 11.846738 0.000000 0.000000 0.000000 3.635274 0.197669 -4.368875 -1.323227 0.674054 -3.942248 -2.879390 3.833889 4.830554 5.803174 -3.352143 -7.137607 0.000000 0.000000 0.000000 -14.211007 -3.567374 -0.470680 -56.416080 -7.545865 -3.141540 -10.207621 -16.899289 1.999387 0.000000 0.000000 0.000000 13.150739 -1.245573 -1.052488 63.128569 3.649855 -3.893521 7.279283 18.590627 1.792317 0.000000 0.000000 0.000000 
0.000970 0.950780 0.000698 -0.547162 0.449705 6.843925 4.110491 -0.348679 -4.067430 1.108190 0.067193 -4.224802 -0.505764 2.770171 9.020738 0.000000 0.000000 0.000000 -2.029812 0.492098 -4.962269 -2.849728 -0.005361 -4.648027 -0.146053 -5.160954 11.946559 0.000000 0.000000 0.000000 3.511981 0.207498 -4.509997 -1.002033 0.536436 -3.750698 -3.292038 3.924358 4.726752 5.784280 -3.343823 -6.988488 0.000000 0.000000 0.000000 -14.350337 -3.536777 -0.570911 -55.620963 -7.657082 -3.022156 -10.731654 -16.389075 2.000943 0.000000 0.000000 0.000000 13.172409 -1.661791 -1.203070 62.736099 3.442586 -3.961839 7.907457 18.507770 1.885450 0.000000 0.000000 0.000000 
0.001158 0.950983 0.000798 -0.465180 0.287903 6.856582 3.937239 -0.350608 -4.107593 1.247609 0.046786 -3.989735 -0.310965 3.013268 8.787918 0.000000 0.000000 0.000000 -2.040588 0.496270 -5.010244 -3.100368 0.004446 -4.724197 -0.105295 -5.196988 12.229684 0.000000 0.000000 0.000000 3.479180 0.212248 -4.566326 -1.004237 0.534365 -3.662249 -3.244685 4.096951 4.436022 5.811208 -3.476632 -6.301201 0.000000 0.000000 0.000000 -14.786740 -3.326034 -0.753564 -55.223392 -7.422597 -3.058522 -10.280359 -16.399424 1.933581 0.000000 0.000000 0.000000 13.231485 -1.512175 -1.125032 62.461344 3.646453 -3.812765 7.943801 18.252722 1.858699 0.000000 0.000000 0.000000 
0.001318 0.950728 0.000891 -0.288761 0.349106 6.790811 3.737825 -0.348519 -4.057088 1.256116 0.052602 -4.130718 -0.263092 3.239316 9.162974 0.000000 0.000000 0.000000 -2.169656 0.477432 -4.792096 -3.358243 0.008273 -4.904241 -0.213775 -5.409495 12.276690 0.000000 0.000000 0.000000 3.403516 0.223741 -4.732048 -1.041258 0.544946 -3.292507 -3.407887 3.903363 4.158475 5.872301 -3.478634 -6.544362 0.000000 0.000000 0.000000 -15.031251 -3.086576 -0.883431 -54.807333 -6.921710 -3.227377 -10.385369 -16.247574 1.931227 0.000000 0.000000 0.000000 13.356229 -1.439641 -1.121159 62.309667 3.481692 -3.880884 8.140733 18.636943 1.929379 0.000000 0.000000 0.000000 
0.001518 0.950477 0.000922 -0.180065 0.228177 6.807026 3.498492 -0.357904 -4.203029 1.340443 0.034951 -3.878086 -0.174611 3.260079 8.815466 0.000000 0.000000 0.000000 -2.325393 0.475241 -4.765976 -3.550508 0.016984 -4.936562 -0.189839 -5.352542 12.186642 0.000000 0.000000 0.000000 3.550910 0.222308 -4.686279 -1.139372 0.587529 -3.359345 -3.751556 4.181040 3.974784 6.017616 -3.530346 -6.735302 0.000000 0.000000 0.000000 -15.212162 -3.225012 -0.905822 -54.514795 -6.463716 -3.383543 -9.985473 -16.046927 1.843262 0.000000 0.000000 0.000000 13.612813 -1.606241 -1.169813 62.453626 3.414513 -3.900837 8.105221 18.816357 1.955171 0.000000 0.000000 0.000000 
0.001703 0.950076 0.000920 -0.039388 0.115716 6.753038 3.319419 -0.353529 -4.127346 1.198905 0.051057 -4.016492 -0.003314 3.583503 8.910308 0.000000 0.000000 0.000000 -2.531080 0.467078 -4.668365 -3.754412 0.016655 -5.105863 -0.081046 -5.164342 12.199911 0.000000 0.000000 0.000000 3.648091 0.227690 -4.734608 -1.239030 0.627605 -3.191040 -3.982476 4.191288 3.642576 6.058783 -3.516111 -6.938536 0.000000 0.000000 0.000000 -15.221193 -3.396360 -0.834079 -54.405945 -6.080319 -3.516336 -9.571568 -15.369255 1.710210 0.000000 0.000000 0.000000 13.734320 -1.618460 -1.187730 62.572095 3.384554 -3.894327 7.843518 18.929505 1.927831 0.000000 0.000000 0.000000 
0.001856 0.949805 0.000879 0.056827 0.032808 6.522488 3.396375 -0.340564 -3.960925 0.953937 0.070917 -4.077286 -0.012420 3.577039 8.959224 0.000000 0.000000 0.000000 -2.703236 0.441749 -4.356408 -3.802028 0.013522 -5.187215 0.022417 -4.915979 12.007318 0.000000 0.000000 0.000000 3.857628 0.224218 -4.617123 -1.351971 0.675447 -3.097224 -4.347141 4.304881 3.438197 6.046126 -3.454181 -7.161428 0.000000 0.000000 0.000000 -15.376706 -3.619952 -0.784653 -54.193716 -5.990504 -3.511807 -8.976643 -14.645610 1.552290 0.000000 0.000000 0.000000 14.060326 -1.697015 -1.219616 62.504315 3.466164 -3.838654 7.549508 18.826512 1.875072 0.000000 0.000000 0.000000 
0.001955 0.949693 0.000806 0.190495 -0.152001 6.442783 3.200260 -0.325884 -3.731146 0.967925 0.079248 -4.299917 -0.000064 3.577194 8.947538 0.000000 0.000000 0.000000 -2.895515 0.424676 -4.123608 -3.815646 -0.001121 -5.387100 0.090872 -4.801688 11.980749 0.000000 0.000000 0.000000 3.924574 0.232804 -4.696671 -1.452948 0.718920 -3.139970 -4.427797 4.207661 3.552040 5.915970 -3.339420 -7.351975 0.000000 0.000000 0.000000 -15.753795 -3.908743 -0.650527 -54.055223 -5.793145 -3.592077 -8.356405 -14.160794 1.433891 0.000000 0.000000 0.000000 14.131910 -1.482683 -1.146015 62.656918 3.766761 -3.712293 7.201192 18.756886 1.809840 0.000000 0.000000 0.000000 
0.002030 0.949649 0.000752 0.317373 -0.085776 6.355396 3.251761 -0.315991 -3.582767 0.757681 0.100881 -4.471505 -0.225618 3.229133 9.066218 0.000000 0.000000 0.000000 -3.100596 0.413452 -3.974411 -3.861328 -0.002657 -5.451169 0.178011 -4.639544 12.024798 0.000000 0.000000 0.000000 3.999726 0.237893 -4.741787 -1.364675 0.681236 -3.158482 -4.919366 4.119779 3.542430 5.908418 -3.306019 -7.489171 0.000000 0.000000 0.000000 -15.702948 -4.158216 -0.535141 -54.178065 -5.951463 -3.529860 -7.832628 -13.571430 1.314125 0.000000 0.000000 0.000000 14.160255 -1.495060 -1.143937 63.007734 3.896117 -3.652170 6.963343 18.786059 1.779639 0.000000 0.000000 0.000000 
